<?xml version="1.0" encoding="iso-8859-1"?>
<!-- Generator: Adobe Illustrator 19.0.0, SVG Export Plug-In . SVG Version: 6.00 Build 0)  -->
<svg xmlns="http://www.w3.org/2000/svg" xmlns:xlink="http://www.w3.org/1999/xlink" version="1.1" id="Layer_1" x="0px" y="0px" viewBox="0 0 512 512" style="enable-background:new 0 0 512 512;" xml:space="preserve" width="512" height="512">
<g>
	<path style="fill:#D3D3D8;" d="M482.3,74.2c-16.201-8.101-35.099-7.2-50.4,2.399c-11.1,6.901-19.2,17.401-22.8,29.401h-61.7   l-50.7-16.8c-13.5-4.501-27.601-7.8-41.7-10.201C242.1,76.899,229.2,76,216,76h-59.7l-7.202-6.901C134.399,54.099,114.6,46,93.6,46   C50.4,46,15,81.4,15,124.6V196h482V82L482.3,74.2z"/>
	<path style="fill:#BABAC0;" d="M497,82v114H255V78.999c14.099,2.401,28.2,5.7,41.7,10.201l50.7,16.8h61.7   c3.6-12.001,11.7-22.5,22.8-29.401c15.3-9.598,34.199-10.499,50.4-2.399L497,82z"/>
	<rect x="30" y="241" style="fill:#596C76;" width="30" height="150"/>
	<rect x="45" y="316" style="fill:#596C76;" width="422" height="30"/>
	<path style="fill:#465A61;" d="M45,466c-24.814,0-45-20.186-45-45s20.186-45,45-45s45,20.186,45,45S69.814,466,45,466z"/>
	<path style="fill:#ECECF1;" d="M45,436c-8.276,0-15-6.724-15-15s6.724-15,15-15s15,6.724,15,15S53.276,436,45,436z"/>
	<rect x="452" y="241" style="fill:#465A61;" width="30" height="150"/>
	<path style="fill:#ECECF1;" d="M0,166v90h512v-90H0z"/>
	<rect x="255" y="316" style="fill:#465A61;" width="212" height="30"/>
	<rect x="255" y="166" style="fill:#D3D3D8;" width="257" height="90"/>
	<path style="fill:#3B4A51;" d="M467,466c-24.814,0-45-20.186-45-45s20.186-45,45-45s45,20.186,45,45S491.814,466,467,466z"/>
	<path style="fill:#D3D3D8;" d="M467,436c-8.276,0-15-6.724-15-15s6.724-15,15-15s15,6.724,15,15S475.276,436,467,436z"/>
</g>















</svg>
